<?xml version="1.0" standalone="no"?>
<!DOCTYPE svg PUBLIC "-//W3C//DTD SVG 20010904//EN"
 "http://www.w3.org/TR/2001/REC-SVG-20010904/DTD/svg10.dtd">
<svg version="1.0" xmlns="http://www.w3.org/2000/svg"
 width="360.000000pt" height="316.000000pt" viewBox="0 0 360.000000 316.000000"
 preserveAspectRatio="xMidYMid meet">

<g transform="translate(0.000000,316.000000) scale(0.100000,-0.100000)"
fill="#000000" stroke="none">
<path d="M0 2986 l0 -173 52 -7 c29 -4 57 -11 63 -16 34 -28 192 -28 268 0 29
11 88 23 132 29 44 5 99 15 121 22 37 11 49 10 113 -11 39 -12 71 -25 71 -29
0 -3 29 -6 65 -6 63 -1 65 0 65 25 1 14 3 50 6 80 3 30 5 63 5 73 0 10 5 15
11 11 7 -5 9 0 5 16 -11 42 7 65 63 78 28 7 62 12 75 12 35 0 126 -31 165 -57
19 -13 39 -23 44 -23 4 0 24 -14 43 -30 19 -17 39 -27 45 -24 6 4 8 3 4 -4 -9
-15 9 -24 55 -27 28 -3 48 -12 70 -34 36 -37 78 -60 99 -55 8 2 36 11 62 21
38 14 52 15 67 6 10 -7 22 -9 25 -5 10 10 56 14 56 4 0 -4 30 -7 68 -7 37 1
72 -1 77 -4 6 -3 21 -7 35 -9 13 -2 30 -8 37 -14 7 -5 28 -10 48 -11 19 -1 35
-5 35 -10 0 -4 4 -6 9 -2 5 3 12 1 16 -5 3 -5 15 -10 26 -10 11 0 17 -4 14
-10 -6 -10 3 -11 100 -15 60 -2 144 -13 155 -20 4 -3 55 -10 111 -16 57 -5
108 -14 114 -18 17 -14 56 -22 140 -31 44 -5 114 -19 155 -31 108 -33 205 -31
345 8 83 23 129 30 188 29 l77 -1 0 237 0 238 -1800 0 -1800 0 0 -174z"/>
<path d="M1067 3053 c-9 -2 -15 -8 -12 -13 3 -5 -3 -15 -12 -22 -45 -34 -68
-135 -49 -223 22 -102 105 -268 142 -282 29 -11 38 3 16 25 -13 13 -20 27 -17
31 2 5 -5 11 -17 14 -12 4 -20 9 -16 12 8 8 60 -13 55 -22 -3 -5 5 -9 18 -9
l23 -2 -21 37 c-20 35 -30 48 -72 93 l-20 21 20 -7 c20 -6 20 -6 0 9 -15 12
-17 18 -7 24 10 6 6 13 -15 27 l-28 19 35 6 35 6 -35 2 c-29 2 -32 4 -15 11
20 9 20 9 -2 15 -24 8 -21 31 6 52 18 13 17 14 -19 30 -23 11 -24 12 -4 12 25
1 42 31 19 31 -8 0 -15 5 -15 11 0 7 15 9 40 6 22 -2 40 0 40 4 0 5 -8 9 -17
10 -10 0 -5 5 11 9 23 7 35 5 59 -12 l29 -21 -11 22 c-7 12 -16 19 -20 16 -5
-2 -14 2 -21 10 -7 8 -17 12 -24 8 -6 -3 -8 -3 -4 2 4 4 -3 16 -16 26 -25 19
-28 20 -59 12z m27 -62 c-2 -3 -12 3 -22 13 -16 17 -16 18 5 5 12 -7 20 -15
17 -18z m43 -367 c-3 -3 -12 -4 -19 -1 -8 3 -5 6 6 6 11 1 17 -2 13 -5z"/>
<path d="M1130 3053 c1 -13 50 -44 59 -38 5 3 12 1 16 -5 3 -5 11 -10 18 -10
16 0 -1 14 -46 39 -41 23 -47 25 -47 14z"/>
<path d="M1466 2807 c3 -10 9 -15 12 -12 3 3 0 11 -7 18 -10 9 -11 8 -5 -6z"/>
<path d="M1486 2781 c-4 -6 -3 -18 2 -27 8 -15 10 -14 16 2 8 20 -8 42 -18 25z"/>
<path d="M1240 2721 c0 -4 9 -16 20 -26 11 -10 20 -24 20 -30 0 -7 13 -27 29
-46 16 -18 28 -36 25 -40 -2 -4 0 -19 6 -34 9 -23 7 -28 -11 -32 -21 -6 -21
-7 -4 -20 27 -19 -4 -18 -41 2 -41 21 -65 19 -33 -3 14 -9 24 -23 21 -31 -3
-8 0 -11 7 -7 6 4 11 3 11 -2 0 -11 45 -32 68 -32 9 0 24 -5 32 -10 13 -8 12
-12 -7 -25 -12 -9 -20 -21 -17 -29 3 -7 -2 -19 -11 -26 -12 -10 -15 -10 -15 3
0 20 -20 27 -45 14 -11 -6 -27 -11 -35 -12 -8 -1 -25 -2 -37 -3 -33 -3 -29
-15 20 -64 47 -48 87 -70 106 -58 8 5 0 10 -23 14 -49 9 -45 22 10 31 57 8 47
22 -21 29 -72 7 -73 7 -37 16 18 4 49 4 69 -1 21 -4 44 -4 54 2 10 5 31 9 47
9 26 0 30 -3 27 -25 -2 -20 3 -27 23 -32 20 -5 30 0 49 23 86 104 109 127 146
145 27 14 42 18 45 10 2 -6 8 -11 13 -11 6 0 8 4 5 9 -3 5 10 18 29 30 33 19
50 61 24 61 -5 0 -7 -4 -4 -10 4 -6 -7 -10 -24 -10 -17 0 -31 -5 -31 -11 0 -6
-5 -5 -12 3 -20 21 -38 56 -38 72 0 7 -9 24 -19 37 l-20 24 4 -32 c4 -29 1
-33 -19 -33 -17 0 -22 -6 -22 -22 1 -13 8 -29 16 -36 13 -11 12 -12 -6 -3 -12
6 -25 7 -29 3 -3 -4 -10 -7 -13 -8 -27 -3 -67 -34 -83 -66 -19 -37 -34 -52
-23 -23 4 8 -1 17 -10 21 -9 3 -13 10 -10 15 3 5 0 9 -6 9 -6 0 -13 -7 -16
-15 -7 -17 -49 -20 -59 -5 -3 6 4 10 17 11 13 0 17 3 10 6 -21 8 -2 23 31 24
l32 1 -29 12 c-23 11 -25 14 -12 19 10 4 14 12 10 18 -4 7 -3 9 4 5 6 -3 13
-2 16 3 4 5 2 12 -3 16 -6 3 -8 12 -5 20 4 8 -1 18 -9 21 -9 3 -21 21 -27 39
-11 32 -57 65 -92 65 -8 0 -18 4 -23 8 -18 15 -65 32 -65 23z"/>
<path d="M1205 2710 c3 -5 8 -10 11 -10 2 0 4 5 4 10 0 6 -5 10 -11 10 -5 0
-7 -4 -4 -10z"/>
<path d="M1490 2681 c0 -6 4 -13 10 -16 6 -3 7 1 4 9 -7 18 -14 21 -14 7z"/>
<path d="M1130 2676 c0 -2 7 -6 15 -10 8 -3 15 -1 15 4 0 6 -7 10 -15 10 -8 0
-15 -2 -15 -4z"/>
<path d="M1887 2586 c-26 -54 -50 -153 -42 -173 5 -10 7 -24 6 -32 -2 -9 3
-12 14 -7 9 3 13 2 10 -4 -9 -15 18 -12 41 4 11 8 24 11 30 8 13 -10 64 -107
64 -124 0 -21 46 -79 55 -70 5 4 5 -1 2 -10 -4 -11 3 -22 20 -33 29 -20 88
-32 79 -17 -4 6 3 8 16 4 17 -4 20 -2 15 11 -3 9 0 18 9 21 8 3 14 1 14 -4 0
-6 5 -10 11 -10 5 0 7 6 3 13 -6 10 -4 10 7 0 7 -7 19 -13 26 -13 8 0 38 -16
68 -35 38 -24 53 -39 49 -50 -4 -8 -1 -15 6 -15 6 0 9 -4 5 -9 -3 -5 5 -18 17
-28 13 -10 23 -24 24 -30 1 -7 2 -22 3 -33 1 -27 14 -25 42 5 26 27 54 31 112
14 32 -9 43 -7 71 10 18 11 41 30 51 41 17 18 17 24 6 43 -8 12 -13 42 -12 68
3 102 -40 223 -88 243 -10 5 -12 0 -7 -20 4 -15 3 -23 -3 -20 -5 3 -11 1 -13
-6 -3 -7 -7 -2 -10 10 -7 24 17 56 33 47 5 -4 9 1 9 9 0 19 -11 21 -28 4 -9
-9 -12 -9 -13 2 0 10 -4 8 -10 -5 l-9 -20 3 20 c1 11 8 21 15 21 33 4 35 6 14
15 -14 5 -20 13 -16 20 4 7 3 10 -2 6 -5 -3 -18 1 -28 9 -20 14 -19 15 23 26
21 6 -76 78 -104 78 -13 0 -33 -9 -46 -21 -21 -18 -22 -20 -4 -15 20 6 20 6
-1 -11 -11 -10 -21 -21 -22 -25 -1 -5 -2 -9 -3 -10 -6 -22 -5 -35 5 -34 6 0
11 -3 11 -9 0 -5 -13 -9 -29 -7 -18 2 -26 0 -21 -7 3 -6 18 -11 33 -11 24 0
25 -1 7 -14 -14 -10 -26 -11 -43 -5 -42 16 -48 9 -9 -12 38 -20 51 -34 20 -22
-11 4 -14 3 -9 -5 10 -16 -6 -15 -40 3 -16 8 -38 15 -49 14 -18 0 -18 -1 3 -9
26 -11 30 -22 5 -13 -15 5 -16 3 -5 -8 18 -19 15 -40 -4 -32 -14 5 -16 2 -10
-21 4 -17 3 -25 -3 -22 -5 3 -11 1 -13 -6 -2 -6 -15 4 -28 23 -32 47 -83 98
-97 99 -6 0 -15 5 -19 12 -4 7 -3 8 4 4 7 -4 12 -3 12 3 0 5 -5 13 -11 17 -6
3 -9 15 -6 25 6 22 -8 24 -48 9 -39 -15 -94 -20 -101 -9 -9 15 64 112 77 103
5 -2 13 6 19 18 9 20 9 21 -2 7 -10 -13 -17 -14 -33 -5 -11 6 -24 17 -28 24
-4 7 -19 10 -33 8 -13 -3 -24 -1 -24 3 0 20 -30 4 -43 -23z m634 -128 c14 -12
39 -50 39 -61 0 -3 -6 -4 -14 -3 -21 3 -62 47 -71 74 -6 21 -5 22 12 13 10 -6
25 -16 34 -23z m49 -19 c0 -5 -4 -9 -10 -9 -5 0 -10 7 -10 16 0 8 5 12 10 9 6
-3 10 -10 10 -16z m55 -159 c3 -5 -1 -10 -10 -10 -9 0 -13 5 -10 10 3 6 8 10
10 10 2 0 7 -4 10 -10z m15 -51 c0 -5 -4 -9 -10 -9 -5 0 -10 7 -10 16 0 8 5
12 10 9 6 -3 10 -10 10 -16z m-485 -20 c11 -17 -1 -21 -15 -4 -8 9 -8 15 -2
15 6 0 14 -5 17 -11z m-30 -19 c4 -6 -6 -10 -22 -10 -22 0 -25 2 -13 10 19 12
27 12 35 0z"/>
<path d="M1570 2581 c0 -5 -14 -14 -31 -20 -17 -6 -28 -15 -24 -21 4 -7 17 -4
38 9 33 21 47 41 28 41 -6 0 -11 -4 -11 -9z"/>
<path d="M2095 2506 c-18 -13 -18 -14 8 -9 15 3 24 9 21 14 -7 12 -7 12 -29
-5z"/>
<path d="M1151 2494 c50 -120 50 -120 80 -116 38 6 37 13 -5 36 -19 10 -40 31
-47 47 -6 16 -16 32 -22 36 -5 3 -8 2 -6 -3z"/>
<path d="M2254 2415 c20 -12 31 -14 39 -6 8 8 5 11 -10 11 -12 0 -30 3 -40 6
-10 3 -5 -2 11 -11z"/>
<path d="M1330 2395 c0 -8 4 -15 10 -15 5 0 7 7 4 15 -4 8 -8 15 -10 15 -2 0
-4 -7 -4 -15z"/>
<path d="M1933 2351 c1 -11 8 -21 15 -21 12 0 12 3 1 18 -7 9 -14 19 -16 21
-1 2 -1 -6 0 -18z"/>
<path d="M1657 2287 c-32 -27 -47 -63 -47 -114 0 -51 -1 -53 -27 -54 -25 -1
-25 -2 -7 -7 17 -6 20 -11 13 -29 -5 -13 -17 -23 -28 -23 -12 0 -20 -9 -24
-27 -7 -36 1 -53 26 -53 11 0 30 -9 41 -19 30 -27 134 -52 179 -42 25 6 42 5
55 -5 17 -12 20 -11 25 5 2 9 -1 25 -8 35 -7 9 -11 30 -9 45 4 21 -1 30 -18
39 -21 10 -19 11 15 7 46 -4 48 10 3 25 -41 13 -52 35 -31 66 33 51 7 116 -55
135 -16 5 -43 13 -59 18 -20 6 -34 5 -44 -2z"/>
<path d="M1840 2205 c0 -8 4 -15 10 -15 5 0 7 7 4 15 -4 8 -8 15 -10 15 -2 0
-4 -7 -4 -15z"/>
<path d="M1860 2010 c0 -5 7 -10 16 -10 8 0 12 5 9 10 -3 6 -10 10 -16 10 -5
0 -9 -4 -9 -10z"/>
<path d="M2020 1926 c0 -27 15 -42 25 -26 8 13 -3 50 -16 50 -5 0 -9 -11 -9
-24z"/>
<path d="M1972 1904 c-25 -17 -32 -70 -8 -61 7 3 19 0 25 -6 9 -9 11 -8 6 4
-4 10 0 19 9 22 19 8 21 31 3 45 -10 9 -19 7 -35 -4z"/>
<path d="M2136 1880 c-13 -4 -16 -9 -8 -14 7 -4 19 -3 28 2 21 12 5 22 -20 12z"/>
<path d="M2090 1875 c0 -2 11 -20 24 -40 22 -31 25 -33 24 -13 -2 24 -25 58
-40 58 -4 0 -8 -2 -8 -5z"/>
<path d="M1195 1320 c-3 -5 1 -10 10 -10 9 0 13 5 10 10 -3 6 -8 10 -10 10 -2
0 -7 -4 -10 -10z"/>
<path d="M2245 1323 c-37 -9 -41 -23 -5 -19 19 3 44 5 55 5 17 1 17 3 5 11
-16 10 -23 11 -55 3z"/>
<path d="M2244 1253 c-23 -2 -49 -12 -58 -22 -15 -17 -14 -18 23 -19 22 -1 52
5 68 13 15 8 34 15 41 15 7 0 10 5 7 10 -3 6 -14 9 -23 8 -9 -1 -36 -3 -58 -5z"/>
<path d="M1134 1228 c2 -18 11 -24 35 -26 l32 -3 -16 25 c-22 33 -56 35 -51 4z"/>
<path d="M1198 1183 c7 -3 16 -2 19 1 4 3 -2 6 -13 5 -11 0 -14 -3 -6 -6z"/>
<path d="M1063 1103 c-18 -2 -33 -8 -33 -14 0 -13 30 -10 65 6 31 14 25 15
-32 8z"/>
<path d="M2400 1086 c0 -2 7 -7 16 -10 8 -3 12 -2 9 4 -6 10 -25 14 -25 6z"/>
<path d="M1090 1072 c-46 -5 -63 -20 -58 -54 3 -15 0 -28 -5 -28 -6 0 -7 -3
-4 -7 4 -3 3 -11 -2 -17 -5 -6 -9 -27 -8 -46 2 -27 7 -35 27 -41 l25 -6 -25
-4 c-19 -3 -26 -12 -31 -39 -4 -19 -3 -40 2 -47 7 -7 6 -14 -2 -18 -8 -6 -7
-10 2 -16 10 -6 11 -9 2 -9 -18 0 -16 -31 2 -57 13 -19 13 -22 -2 -28 -10 -3
-13 -9 -8 -13 6 -4 10 -11 11 -17 3 -29 18 -55 34 -60 21 -7 92 24 84 37 -3 4
-11 5 -17 1 -7 -3 -3 4 8 16 14 17 27 21 50 18 22 -3 43 4 75 25 32 21 37 23
18 6 -16 -13 -28 -27 -28 -31 0 -14 18 -7 41 17 30 29 69 50 69 37 0 -5 -9
-13 -20 -16 -11 -3 -20 -10 -20 -15 0 -10 38 -1 46 11 3 5 10 9 16 9 7 0 6 -6
-2 -15 -15 -18 -3 -19 34 -5 19 7 26 6 26 -2 0 -6 3 -9 6 -5 4 3 22 -9 42 -27
l35 -34 3 -136 c2 -75 7 -144 12 -153 5 -10 12 -30 16 -44 4 -21 2 -26 -10
-25 -10 0 -23 -16 -34 -44 -11 -25 -19 -40 -19 -33 -1 7 -8 10 -16 7 -8 -4
-15 -1 -15 6 0 7 -6 6 -16 -4 -18 -18 -34 -21 -34 -5 0 6 -12 1 -26 -10 -24
-19 -54 -19 -54 1 0 5 -6 6 -12 2 -7 -5 -30 -9 -50 -10 l-38 -2 0 44 c0 24 -4
44 -8 44 -18 0 -41 -36 -36 -57 7 -26 -8 -35 -59 -38 -31 -2 -40 1 -44 16 -5
17 -8 17 -33 4 -16 -8 -31 -20 -34 -27 -3 -7 -4 11 -1 40 7 65 22 100 47 107
23 8 23 16 -3 46 -13 15 -18 31 -15 45 3 12 0 26 -7 31 -19 15 -60 23 -71 14
-6 -5 -33 -11 -59 -14 -26 -2 -56 -12 -66 -21 -11 -10 -22 -13 -25 -8 -3 5 1
15 9 22 21 17 19 30 -5 30 -28 0 -42 -35 -50 -125 -6 -61 -12 -82 -25 -90 -10
-5 -32 -22 -50 -37 -20 -18 -36 -24 -45 -18 -7 4 -28 6 -46 3 -26 -4 -35 -1
-46 16 -16 26 -26 26 -45 4 -14 -17 -14 -17 -9 -1 4 13 -2 20 -19 24 -32 8
-50 -3 -34 -22 16 -20 -31 -36 -82 -28 -26 4 -39 3 -39 -5 0 -7 22 -12 58 -13
43 -1 48 -2 19 -5 -60 -7 -32 -23 39 -23 59 0 87 13 47 22 -10 2 8 8 41 12 41
5 62 4 70 -4 8 -9 2 -11 -27 -8 -27 3 -42 -1 -54 -14 -9 -10 -11 -18 -5 -18 6
0 13 4 16 9 3 5 15 7 27 4 17 -5 18 -8 7 -19 -10 -10 -22 -11 -44 -5 -19 5
-37 5 -45 0 -16 -11 -139 -8 -139 3 0 4 -12 1 -27 -7 -15 -8 -29 -12 -33 -10
-3 2 -6 -6 -7 -18 0 -12 1 -17 3 -12 3 6 79 10 204 9 111 0 203 3 206 8 3 5
12 4 20 -2 15 -13 35 -14 212 -4 85 4 127 3 135 -5 6 -6 16 -11 21 -11 6 0 4
4 -4 10 -22 14 -6 22 22 11 15 -5 30 -5 41 0 9 5 60 8 114 6 54 -2 85 -1 68 2
-27 6 -28 7 -10 15 55 22 372 26 359 4 -9 -14 326 -7 355 9 34 17 88 17 138
-1 62 -22 477 -26 455 -4 -4 4 -60 10 -123 12 -63 2 -142 6 -176 8 -36 2 -63
-1 -63 -6 0 -6 -6 -1 -14 9 -8 11 -26 19 -42 20 -16 0 -30 5 -30 10 -5 30 -18
53 -28 49 -7 -3 -30 16 -50 41 -32 38 -37 50 -30 73 l8 27 5 -31 c3 -16 16
-43 29 -59 19 -24 25 -26 32 -15 6 10 3 21 -10 35 -21 22 -27 40 -10 30 6 -4
7 2 1 17 -7 17 -4 28 9 43 15 17 16 31 9 100 -4 44 -13 81 -18 83 -6 2 -11 10
-11 17 0 8 -7 11 -20 8 -15 -4 -20 0 -20 14 0 10 6 25 13 33 6 7 -1 5 -18 -5
l-30 -18 19 21 c24 28 13 28 -26 1 -16 -12 -32 -18 -35 -15 -4 4 3 13 15 22
21 15 32 42 12 29 -16 -10 -12 5 6 23 15 15 15 16 -1 22 -9 3 -16 9 -16 13 3
25 -1 29 -29 25 -38 -6 -39 7 -2 18 26 7 26 7 -13 15 -55 10 -75 -3 -75 -48 0
-28 3 -33 13 -24 24 19 27 -1 4 -21 l-22 -19 25 7 c20 5 23 4 13 -7 -17 -17
-16 -26 3 -33 8 -3 13 -2 11 2 -3 4 8 7 23 8 l29 1 -22 -18 c-21 -18 -21 -18
-2 -19 11 -1 14 -4 8 -7 -7 -2 -13 -14 -12 -26 l0 -22 16 23 c19 27 33 29 26
2 -3 -11 -9 -20 -14 -20 -5 0 -9 -5 -9 -11 0 -5 5 -7 10 -4 6 4 2 -10 -7 -31
-12 -24 -19 -31 -21 -20 -5 23 -22 20 -22 -4 0 -13 -5 -18 -15 -14 -8 4 -15 1
-15 -6 0 -9 -4 -9 -17 1 -9 8 -14 9 -11 4 4 -6 -1 -11 -11 -11 -13 0 -16 6
-13 23 6 31 -16 29 -24 -2 -9 -36 -22 -31 -30 11 -5 25 -9 32 -15 22 -8 -11
-10 -11 -18 1 -7 11 -9 11 -14 0 -3 -8 -3 1 0 19 7 39 -9 40 -44 2 l-22 -25
-1 28 c0 24 -15 58 -56 128 -6 11 -14 16 -17 12 -4 -3 -7 -2 -7 3 0 15 -66
114 -72 109 -3 -3 -16 10 -29 30 -13 19 -31 35 -39 35 -8 0 -21 14 -28 30 -8
17 -17 28 -20 26 -10 -6 -37 16 -45 36 -3 10 -27 28 -51 40 -25 12 -43 25 -40
29 2 4 -6 6 -18 3 -43 -9 -173 -16 -167 -9 11 11 127 35 142 29 8 -3 17 2 20
10 10 25 -44 37 -100 22 -27 -7 -59 -18 -71 -25 -12 -6 -22 -7 -22 -2 0 9 36
26 105 47 l40 13 -35 -2 c-19 -1 -51 -3 -70 -5z m3 -119 c-7 -2 -19 -2 -25 0
-7 3 -2 5 12 5 14 0 19 -2 13 -5z m117 -203 c0 -5 -15 -10 -32 -10 -25 0 -29
3 -18 10 20 13 50 13 50 0z m75 -39 c-3 -6 -14 -11 -23 -11 -15 1 -15 2 2 15
21 16 32 13 21 -4z m714 -240 c-6 -18 -13 -30 -15 -28 -2 2 1 18 7 36 6 18 13
30 15 28 2 -2 -1 -18 -7 -36z m26 -221 c13 -7 22 -17 19 -21 -2 -4 2 -25 11
-45 19 -46 19 -50 -1 -33 -26 21 -63 84 -65 110 -3 39 4 68 8 33 3 -20 13 -36
28 -44z m-765 -120 c0 -5 -2 -10 -4 -10 -3 0 -8 5 -11 10 -3 6 -1 10 4 10 6 0
11 -4 11 -10z m-592 -37 c-10 -12 -88 -14 -88 -2 0 13 15 18 55 16 33 -2 41
-5 33 -14z"/>
<path d="M2400 890 c0 -5 5 -10 11 -10 5 0 7 5 4 10 -3 6 -8 10 -11 10 -2 0
-4 -4 -4 -10z"/>
<path d="M2340 876 c0 -9 -7 -12 -20 -9 -18 5 -20 2 -16 -18 2 -13 7 -32 11
-42 7 -16 10 -15 30 9 20 23 25 25 46 13 22 -11 23 -11 11 4 -8 9 -11 21 -7
28 5 8 1 9 -16 4 -21 -7 -22 -6 -10 9 12 14 11 16 -8 16 -11 0 -21 -6 -21 -14z"/>
<path d="M2438 883 c7 -3 16 -2 19 1 4 3 -2 6 -13 5 -11 0 -14 -3 -6 -6z"/>
<path d="M2430 840 c0 -5 5 -10 11 -10 5 0 7 5 4 10 -3 6 -8 10 -11 10 -2 0
-4 -4 -4 -10z"/>
<path d="M2123 763 c-9 -24 8 -35 28 -17 10 9 19 20 19 23 0 12 -42 7 -47 -6z"/>
<path d="M2008 753 c7 -3 16 -2 19 1 4 3 -2 6 -13 5 -11 0 -14 -3 -6 -6z"/>
<path d="M2058 753 c7 -3 16 -2 19 1 4 3 -2 6 -13 5 -11 0 -14 -3 -6 -6z"/>
<path d="M3293 545 c-35 -24 -82 -104 -89 -151 -3 -24 -10 -47 -15 -50 -13 -7
2 -98 18 -107 28 -17 12 -44 -22 -37 -7 1 -7 -2 0 -8 6 -6 31 -13 56 -17 36
-5 48 -3 60 11 11 13 11 18 2 21 -7 3 -13 8 -13 13 0 14 32 21 45 10 10 -8 33
-6 82 6 74 19 97 37 83 63 -5 10 -4 24 2 34 8 15 1 31 -31 79 -23 34 -41 68
-41 77 0 9 -11 29 -25 44 -29 31 -77 36 -112 12z"/>
<path d="M1937 499 c3 -10 9 -16 14 -13 13 8 11 21 -5 27 -10 4 -12 0 -9 -14z"/>
<path d="M2672 372 c-18 -3 -21 -8 -16 -24 3 -11 7 -26 8 -32 1 -6 6 -17 11
-25 5 -10 4 -16 -3 -19 -7 -2 -12 -8 -12 -13 0 -6 4 -7 10 -4 5 3 7 0 4 -9 -3
-9 -12 -12 -21 -9 -12 5 -14 3 -8 -7 5 -8 10 -30 12 -49 2 -20 5 -36 6 -37 1
-1 43 -4 92 -7 74 -3 97 -1 127 15 24 11 35 23 32 32 -3 8 2 28 10 45 22 42
21 62 -4 58 -11 -2 -26 -9 -32 -15 -23 -23 -27 -12 -8 21 26 43 26 45 -16 53
-25 5 -45 1 -69 -12 -40 -21 -53 -14 -37 21 9 20 9 25 -2 25 -7 0 -19 -7 -27
-16 -11 -13 -15 -13 -23 -2 -6 7 -21 12 -34 10z m186 -77 c-3 -3 -9 2 -12 12
-6 14 -5 15 5 6 7 -7 10 -15 7 -18z"/>
<path d="M1366 218 c-3 -13 -1 -27 4 -32 7 -7 10 1 10 22 0 37 -5 41 -14 10z"/>
<path d="M597 201 c-17 -6 -17 -8 -3 -20 19 -16 51 -11 51 9 0 17 -22 22 -48
11z"/>
<path d="M3023 193 c9 -2 23 -2 30 0 6 3 -1 5 -18 5 -16 0 -22 -2 -12 -5z"/>
<path d="M3335 190 c3 -5 -1 -10 -9 -10 -9 0 -16 -7 -16 -15 0 -19 9 -19 29
-1 9 7 30 18 46 24 30 10 30 10 -13 11 -26 1 -41 -3 -37 -9z"/>
<path d="M177 123 c-9 -2 -14 -9 -11 -15 5 -8 -3 -9 -24 -5 -25 5 -32 3 -32
-8 0 -9 -13 -18 -30 -21 -16 -4 -30 -11 -30 -16 0 -6 7 -7 16 -4 9 3 24 6 35
6 10 0 19 6 19 13 0 8 26 12 91 14 64 1 96 6 106 16 12 12 9 13 -24 10 -59 -6
-77 -5 -81 7 -4 10 -6 11 -35 3z"/>
<path d="M70 105 c0 -8 7 -15 15 -15 8 0 15 4 15 9 0 5 -7 11 -15 15 -9 3 -15
0 -15 -9z"/>
<path d="M3295 101 c5 -15 3 -19 -8 -15 -7 2 -20 -2 -27 -11 -9 -11 -9 -15 -1
-15 7 0 10 -4 7 -9 -3 -5 4 -11 17 -13 14 -3 31 4 47 20 14 14 19 22 13 18
-18 -10 -39 4 -23 14 9 6 6 11 -10 20 -20 11 -21 10 -15 -9z"/>
<path d="M1390 69 c-30 -5 -26 -7 23 -8 31 0 57 1 57 3 0 8 -47 11 -80 5z"/>
<path d="M1503 70 c-36 -15 -27 -19 17 -9 22 5 53 7 68 3 21 -4 24 -3 12 5
-18 13 -66 13 -97 1z"/>
<path d="M2988 73 c7 -3 16 -2 19 1 4 3 -2 6 -13 5 -11 0 -14 -3 -6 -6z"/>
<path d="M133 63 c4 -3 24 -6 44 -5 28 1 34 -1 23 -8 -13 -8 -13 -10 2 -10 9
0 20 5 23 10 4 6 11 7 17 4 7 -4 8 -2 4 4 -4 7 -32 12 -63 12 -31 0 -53 -3
-50 -7z"/>
<path d="M90 40 c0 -6 7 -10 15 -10 8 0 15 2 15 4 0 2 -7 6 -15 10 -8 3 -15 1
-15 -4z"/>
<path d="M1704 38 c-3 -4 9 -8 27 -8 18 0 29 3 25 7 -10 10 -46 11 -52 1z"/>
<path d="M823 27 c2 -7 14 -14 26 -15 28 -4 20 13 -9 21 -14 3 -20 1 -17 -6z"/>
<path d="M3234 29 c-3 -5 -17 -9 -32 -10 -48 -1 7 -18 62 -18 40 -1 47 1 37
13 -14 17 -59 27 -67 15z"/>
</g>
</svg>
